<?xml version="1.0" encoding="utf-8"?>
<!-- Generator: Adobe Illustrator 25.3.0, SVG Export Plug-In . SVG Version: 6.00 Build 0)  -->
<svg version="1.1" id="Layer_1" xmlns="http://www.w3.org/2000/svg" xmlns:xlink="http://www.w3.org/1999/xlink" x="0px" y="0px"
	 viewBox="0 0 128 128" style="enable-background:new 0 0 128 128;" xml:space="preserve">
<style type="text/css">
	.st0{fill:#00F6FF;}
	.st1{fill:#FFFFFF;}
</style>
<path class="st0" d="M64,115L64,115c-3.8,0-6.9-3.1-6.9-6.9l0,0l0,0c0-3.8,3.1-6.9,6.9-6.9l0,0c3.8,0,6.9,3.1,6.9,6.9l0,0l0,0
	C70.9,111.9,67.8,115,64,115L64,115z"/>
<path class="st0" d="M38.2,53v1.7H52c0-3.8,3.1-6.9,6.9-6.9l0,0h10.3c3.8,0,6.9,3.1,6.9,6.9v5.2c0,3.8-3.1,6.9-6.9,6.9H64
	c-3.8,0-6.9,3.1-6.9,6.9v13.8c0,3.8,3.1,6.9,6.9,6.9l0,0c3.8,0,6.9-3.1,6.9-6.9l0,0v-6.9l0,0c10.4,0,18.9-8.5,18.9-18.9l0,0V53
	c0-10.4-8.5-18.9-18.9-18.9H57.1C46.7,34.1,38.2,42.6,38.2,53z"/>
<path class="st1" d="M72.9,105.6l-0.6-3.4c1.1-0.2,2.2-0.4,3.2-0.7l0.9,3.3C75.3,105.1,74.1,105.3,72.9,105.6z"/>
<path class="st1" d="M83.1,102.4l-1.4-3.2c2-0.9,4-1.9,5.8-3.1l1.8,2.9C87.4,100.4,85.3,101.5,83.1,102.4z M44.7,102.4
	c-2.2-1-4.3-2.1-6.3-3.3l1.8-2.9c1.9,1.2,3.8,2.2,5.8,3.1L44.7,102.4z M95.2,94.9L93,92.3c1.7-1.4,3.3-3,4.7-4.6l2.5,2.3
	C98.7,91.8,97,93.4,95.2,94.9z M32.7,94.9c-1.8-1.5-3.5-3.2-5.1-5l2.6-2.3c1.5,1.7,3,3.2,4.7,4.7L32.7,94.9z M104.5,84.3l-2.9-1.9
	c1.2-1.8,2.3-3.8,3.2-5.8l3.1,1.4C107,80.2,105.8,82.3,104.5,84.3z M23.4,84.2c-1.3-2-2.4-4.1-3.4-6.3l3.1-1.4c0.9,2,2,4,3.1,5.8
	L23.4,84.2z M110.4,71.4l-3.3-0.9c0.6-2.1,1-4.3,1.3-6.4l3.4,0.4C111.5,66.8,111,69.1,110.4,71.4L110.4,71.4z M17.6,71.2
	c-0.6-2.3-1.1-4.6-1.4-7l3.4-0.4c0.3,2.2,0.7,4.3,1.3,6.5L17.6,71.2z M108.8,57.4c0-2.2-0.2-4.4-0.6-6.6l3.4-0.6
	c0.4,2.3,0.6,4.7,0.7,7.1L108.8,57.4z M19.3,57.2l-3.4-0.1c0.1-2.4,0.3-4.7,0.7-7.1l3.4,0.6C19.5,52.8,19.3,55,19.3,57.2L19.3,57.2z
	 M106.6,44.4c-0.7-2.1-1.5-4.1-2.5-6.1l3.1-1.5c1.1,2.1,2,4.3,2.7,6.6L106.6,44.4z M21.5,44.2l-3.3-1.1c0.7-2.3,1.6-4.5,2.7-6.6
	L24,38C23,40.1,22.2,42.1,21.5,44.2L21.5,44.2z M100.7,32.6c-1.3-1.8-2.7-3.5-4.2-5.1l2.5-2.4c1.6,1.7,3.1,3.6,4.5,5.5L100.7,32.6z
	 M27.4,32.5l-2.8-2c1.4-1.9,2.9-3.8,4.5-5.5l2.5,2.4C30,28.9,28.6,30.7,27.4,32.5z M91.7,23c-1.7-1.4-3.6-2.6-5.5-3.7l1.7-3
	c2.1,1.2,4,2.5,5.9,4L91.7,23z M36.5,22.9l-2.1-2.7c1.9-1.5,3.8-2.8,5.9-4l1.7,3C40,20.3,38.2,21.5,36.5,22.9z M80.2,16.5
	c-2.1-0.8-4.2-1.4-6.3-1.9l0.8-3.4c2.3,0.5,4.6,1.2,6.8,2.1L80.2,16.5z M47.9,16.5l-1.2-3.2c2.2-0.9,4.5-1.5,6.8-2.1l0.8,3.4
	C52.1,15,50,15.6,47.9,16.5L47.9,16.5z M67.4,13.6c-2.2-0.2-4.4-0.2-6.6,0l-0.2-3.4c2.4-0.2,4.7-0.2,7.1,0L67.4,13.6z"/>
<path class="st1" d="M55.1,105.6c-1.2-0.2-2.3-0.5-3.5-0.8l0.9-3.3c1.1,0.3,2.2,0.5,3.2,0.7L55.1,105.6z"/>
</svg>
