<?xml version="1.0" encoding="utf-8"?>
<!-- Generator: Adobe Illustrator 25.3.0, SVG Export Plug-In . SVG Version: 6.00 Build 0)  -->
<svg version="1.1" id="Layer_1" xmlns="http://www.w3.org/2000/svg" xmlns:xlink="http://www.w3.org/1999/xlink" x="0px" y="0px"
	 viewBox="0 0 128 128" style="enable-background:new 0 0 128 128;" xml:space="preserve">
<style type="text/css">
	.st0{fill:#FFFFFF;}
	.st1{fill:#00F6FF;}
</style>
<path class="st0" d="M96.5,69.8H93V55.9c0-2.9-2.3-5.2-5.2-5.2H70.4v-3.5h17.4c4.8,0,8.7,3.9,8.7,8.7V69.8z"/>
<path class="st0" d="M87.8,115H32.2c-4.8,0-8.7-3.9-8.7-8.7V55.9c0-4.8,3.9-8.7,8.7-8.7h19.1v3.5H32.2c-2.9-0.1-5.3,2.1-5.4,5
	s2.1,5.3,5,5.4c0.2,0,0.3,0,0.5,0h55.6c4.8,0,8.7,3.9,8.7,8.7v36.5C96.5,111.1,92.6,115,87.8,115z M27,62.9v43.4
	c0,2.9,2.3,5.2,5.2,5.2h55.6c2.9,0,5.2-2.3,5.2-5.2V69.8c0-2.9-2.3-5.2-5.2-5.2H32.2C30.3,64.6,28.5,64,27,62.9z"/>
<rect x="32.2" y="54.2" class="st0" width="55.6" height="3.5"/>
<path class="st0" d="M96.5,101.1H72.2c-6.7-0.2-12-5.8-11.8-12.5c0.2-6.4,5.4-11.6,11.8-11.8h24.3V101.1z M72.2,80.3
	c-4.8,0.2-8.6,4.2-8.4,9c0.2,4.6,3.8,8.2,8.4,8.4H93V80.3H72.2z"/>
<path class="st0" d="M72.2,94.2c-2.9,0-5.2-2.3-5.2-5.2s2.3-5.2,5.2-5.2s5.2,2.3,5.2,5.2S75,94.2,72.2,94.2L72.2,94.2z M72.2,87.2
	c-1,0-1.7,0.8-1.7,1.7s0.8,1.7,1.7,1.7c1,0,1.7-0.8,1.7-1.7l0,0C73.9,87.9,73.1,87.2,72.2,87.2L72.2,87.2z"/>
<circle class="st1" cx="60" cy="42" r="13.9"/>
<path class="st0" d="M61.7,50.7h-3.5c-2.9,0-5.2-2.3-5.2-5.2h3.5c0,1,0.8,1.7,1.7,1.7l0,0h3.5c1,0,1.7-0.8,1.7-1.7
	c0-1-0.8-1.7-1.7-1.7h-3.5c-2.9,0-5.2-2.3-5.2-5.2s2.3-5.2,5.2-5.2l0,0h3.5c2.9,0,5.2,2.3,5.3,5.2l0,0h-3.5c0-1-0.8-1.7-1.7-1.7l0,0
	h-3.5c-1,0-1.7,0.8-1.7,1.7c0,1,0.8,1.7,1.7,1.7l0,0h3.5c2.9,0,5.2,2.3,5.2,5.2C66.9,48.4,64.6,50.7,61.7,50.7z"/>
<rect x="58.3" y="31.6" class="st0" width="3.5" height="3.5"/>
<rect x="58.3" y="49" class="st0" width="3.5" height="3.5"/>
<rect x="58.3" y="9" class="st0" width="3.5" height="13.9"/>
<rect x="70.4" y="14.2" class="st0" width="3.5" height="13.9"/>
<rect x="46.1" y="17.7" class="st0" width="3.5" height="10.4"/>
</svg>
