<?xml version="1.0" encoding="utf-8"?>
<!-- Generator: Adobe Illustrator 25.3.0, SVG Export Plug-In . SVG Version: 6.00 Build 0)  -->
<svg version="1.1" id="Layer_1" xmlns="http://www.w3.org/2000/svg" xmlns:xlink="http://www.w3.org/1999/xlink" x="0px" y="0px"
	 viewBox="0 0 128 128" style="enable-background:new 0 0 128 128;" xml:space="preserve">
<style type="text/css">
	.st0{fill:#FFFFFF;}
	.st1{fill:#22B573;}
	.st2{fill:#00F6FF;}
</style>
<path class="st0" d="M116.5,20.2h-105V10h105V20.2z M14.9,16.8h98.2v-3.4H14.9V16.8z"/>
<path class="st0" d="M104.7,49c-5.6,0-10.2-4.5-10.2-10.2s4.5-10.2,10.2-10.2s10.2,4.5,10.2,10.2l0,0C114.8,44.4,110.3,49,104.7,49z
	 M104.7,32.1c-3.7,0-6.8,3-6.8,6.8s3,6.8,6.8,6.8c3.7,0,6.8-3,6.8-6.8l0,0C111.5,35.1,108.4,32,104.7,32.1
	C104.7,32,104.7,32,104.7,32.1L104.7,32.1z"/>
<path class="st0" d="M116.5,84.5h-3.4v-25c0.1-4.4-3.1-8.2-7.5-8.8c-1.8-0.2-3.6,0.1-5.1,1c-0.4,0.2-8.3,5.4-13.6,8.8l-1.2,0.8
	l-8.6-8.6c-0.8-0.7-1.9-0.7-2.7,0c-0.7,0.7-0.7,1.9,0,2.7l8.7,8.7c0.9,0.9,2.3,1.1,3.4,0.6l9.6-4.2v20.7h-3.4V65.7L88,67.8
	c-2.4,1.1-5.3,0.5-7.2-1.3l-8.7-8.7c-2-2.1-1.8-5.5,0.3-7.5c2-1.9,5.1-1.9,7.2,0l6.7,6.7c8.2-5.3,12.4-8.1,12.6-8.2
	c2.2-1.2,4.7-1.7,7.1-1.4c6.1,0.8,10.6,6,10.5,12.2V84.5z"/>
<rect x="67" y="35.7" transform="matrix(0.8395 -0.5433 0.5433 0.8395 -13.0397 44.4404)" class="st0" width="3.4" height="17.2"/>
<rect x="50.5" y="67.6" class="st0" width="27.1" height="3.4"/>
<rect x="55.5" y="74.4" class="st0" width="22" height="3.4"/>
<polygon class="st0" points="94.5,84.5 16.6,84.5 16.6,16.8 111.4,16.8 111.4,32 108,32 108,20.2 20,20.2 20,81.1 94.5,81.1 "/>
<path class="st0" d="M99.6,115c-3.7,0-6.8-3-6.8-6.8V79.4h3.4v28.8c0.1,1.9,1.7,3.3,3.6,3.2c1.7-0.1,3.1-1.5,3.2-3.2V84.5h3.4v23.7
	C106.3,112,103.3,115,99.6,115z"/>
<path class="st0" d="M109.7,115c-3.7,0-6.8-3-6.8-6.8V84.5h3.4v23.7c0.1,1.9,1.7,3.3,3.6,3.2c1.7-0.1,3.1-1.5,3.2-3.2V79.4h3.4v28.8
	C116.5,112,113.5,115,109.7,115z"/>
<path class="st0" d="M96.2,91.3H11.5V81.1h84.7V91.3z M14.9,87.9h77.9v-3.4H14.9V87.9z"/>
<rect x="62.3" y="89.6" class="st0" width="3.4" height="23.7"/>
<rect x="24.5" y="99.8" transform="matrix(0.4473 -0.8944 0.8944 0.4473 -69.92 89.9216)" class="st1" width="26.5" height="3.4"/>
<rect x="24.5" y="99.8" transform="matrix(0.4473 -0.8944 0.8944 0.4473 -69.92 89.9216)" class="st0" width="26.5" height="3.4"/>
<rect x="88.6" y="88.2" transform="matrix(0.8944 -0.4473 0.4473 0.8944 -35.8401 51.1094)" class="st0" width="3.4" height="26.5"/>
<path class="st2" d="M42,30.3c-9.4,0-16.9,7.6-17,16.9s7.6,16.9,16.9,17s16.9-7.6,17-16.9l0,0H42V30.3z"/>
<path class="st2" d="M47.1,25.2v16.9H64C64,32.8,56.4,25.2,47.1,25.2L47.1,25.2z"/>
<rect x="65.7" y="25.2" class="st0" width="3.4" height="3.4"/>
<rect x="72.5" y="25.2" class="st0" width="3.4" height="3.4"/>
<rect x="79.2" y="25.2" class="st0" width="3.4" height="3.4"/>
<rect x="86" y="25.2" class="st0" width="3.4" height="3.4"/>
</svg>
