<?xml version="1.0" encoding="utf-8"?>
<!-- Generator: Adobe Illustrator 25.3.0, SVG Export Plug-In . SVG Version: 6.00 Build 0)  -->
<svg version="1.1" id="Layer_1" xmlns="http://www.w3.org/2000/svg" xmlns:xlink="http://www.w3.org/1999/xlink" x="0px" y="0px"
	 viewBox="0 0 300 300" style="enable-background:new 0 0 300 300;" xml:space="preserve">
<style type="text/css">
	.st0{fill:none;stroke:#FFFFFF;stroke-width:7;stroke-miterlimit:10;}
	.st1{fill:none;stroke:#00F6FF;stroke-width:7;stroke-miterlimit:10;}
</style>
<path class="st0" d="M132.3,221.1H39.6c-3.1,0-5.7-2.5-5.7-5.6l0,0v-30.6c0-3.1,2.5-5.6,5.6-5.7l0,0h104.7"/>
<line class="st0" x1="61.6" y1="192.2" x2="61.6" y2="208.1"/>
<line class="st0" x1="96.9" y1="192.2" x2="96.9" y2="208.1"/>
<path class="st0" d="M144.3,179.6H39.6c-3.1,0-5.7-2.5-5.7-5.7l0,0v-30.6c0-3.1,2.5-5.7,5.6-5.7l0,0h150.1c3.1,0,5.7,2.5,5.7,5.6
	l0,0v8"/>
<line class="st0" x1="61.6" y1="150.7" x2="61.6" y2="166.6"/>
<line class="st0" x1="96.9" y1="150.7" x2="96.9" y2="166.6"/>
<line class="st0" x1="132.3" y1="150.7" x2="132.3" y2="166.6"/>
<path class="st0" d="M39.6,95.8h150.1c3.1,0,5.7,2.5,5.7,5.7V132c0,3.1-2.5,5.7-5.7,5.7H39.6c-3.1,0-5.7-2.5-5.7-5.7v-30.6
	C33.9,98.3,36.4,95.8,39.6,95.8z"/>
<line class="st0" x1="61.6" y1="108.8" x2="61.6" y2="124.7"/>
<line class="st0" x1="96.9" y1="108.8" x2="96.9" y2="124.7"/>
<line class="st0" x1="132.3" y1="108.8" x2="132.3" y2="124.7"/>
<line class="st0" x1="167.7" y1="108.8" x2="167.7" y2="124.7"/>
<path class="st0" d="M71.3,53.2h150.1c3.1,0,5.7,2.5,5.7,5.7v30.6c0,3.1-2.5,5.7-5.7,5.7H71.3c-3.1,0-5.7-2.5-5.7-5.7V58.8
	C65.6,55.7,68.2,53.2,71.3,53.2z"/>
<line class="st0" x1="93.3" y1="66.2" x2="93.3" y2="82.1"/>
<line class="st0" x1="128.7" y1="66.2" x2="128.7" y2="82.1"/>
<line class="st0" x1="164" y1="66.2" x2="164" y2="82.1"/>
<line class="st0" x1="199.4" y1="66.2" x2="199.4" y2="82.1"/>
<line class="st0" x1="89.8" y1="238.9" x2="118.8" y2="238.9"/>
<line class="st0" x1="114.6" y1="258" x2="128.7" y2="258"/>
<circle class="st0" cx="199" cy="218.3" r="67.1"/>
<path class="st1" d="M199,264.3c-25.4,0-46-20.6-46-46s20.6-46,46-46"/>
<path class="st1" d="M183.2,232c0,7.5,7.1,13.7,15.8,13.7s15.8-6.1,15.8-13.7s-7.1-13.7-15.8-13.7s-15.8-6.1-15.8-13.7
	S190.3,191,199,191s15.8,6.1,15.8,13.6"/>
<line class="st1" x1="199" y1="245.6" x2="199" y2="251.7"/>
<line class="st1" x1="199" y1="184.9" x2="199" y2="191"/>
</svg>
